<?xml version="1.0" encoding="UTF-8" standalone="no"?><svg width="18" height="18" viewBox="0 0 18 18" fill="none" xmlns="http://www.w3.org/2000/svg">
<path d="M0 2.38685C0 1.81445 0.202708 1.34223 0.608108 0.970189C1.01351 0.59813 1.54055 0.412109 2.18919 0.412109C2.82626 0.412109 3.34169 0.595263 3.73552 0.961603C4.14092 1.33938 4.34363 1.83162 4.34363 2.43837C4.34363 2.98786 4.14672 3.44576 3.7529 3.8121C3.3475 4.18988 2.81467 4.37877 2.15444 4.37877H2.13707C1.49999 4.37877 0.984562 4.18988 0.590734 3.8121C0.196905 3.43433 0 2.95924 0 2.38685ZM0.225869 17.4121V5.94139H4.08301V17.4121H0.225869ZM6.22008 17.4121H10.0772V11.007C10.0772 10.6064 10.1236 10.2973 10.2162 10.0798C10.3784 9.69054 10.6245 9.36141 10.9546 9.0924C11.2847 8.82337 11.6988 8.68886 12.1969 8.68886C13.4942 8.68886 14.1429 9.55317 14.1429 11.2818V17.4121H18V10.8353C18 9.14105 17.5946 7.85604 16.7838 6.98028C15.973 6.10452 14.9016 5.66665 13.5695 5.66665C12.0753 5.66665 10.9112 6.302 10.0772 7.5727V7.60705H10.0598L10.0772 7.5727V5.94139H6.22008C6.24324 6.30772 6.25483 7.44677 6.25483 9.35856C6.25483 11.2703 6.24324 13.9548 6.22008 17.4121Z" fill="white"/>
</svg>
