<?xml version="1.0" encoding="UTF-8" standalone="no"?><svg xmlns="http://www.w3.org/2000/svg" width="39" height="32" fill="none" viewBox="0 0 39 32">
  <path fill="#D7DFF9" d="M0 7h24v24H0V7Z"/>
  <path fill="#000" fill-rule="evenodd" d="M19.549 2.05a6.999 6.999 0 0 1 11.948 4.949v3a6.999 6.999 0 0 1-13.998 0v-3c0-1.856.737-3.636 2.05-4.949ZM24.498 2a4.999 4.999 0 0 0-5 4.999v3a5 5 0 0 0 9.999 0v-3a5 5 0 0 0-5-4.999Zm0 19.512c-5.487 0-10.39 3.947-12.56 9.843l-1.877-.69c2.39-6.492 7.925-11.153 14.437-11.153s12.047 4.677 14.436 11.152l-1.877.692c-2.17-5.883-7.074-9.844-12.56-9.844Z" clip-rule="evenodd"/>
</svg>
